{
  "accessors": [
    {
      "bufferView": 2,
      "componentType": 5126,
      "count": 141,
      "max": [
        17.698009490966797,
        6.9857778549194336,
        32.237186431884766
      ],
      "min": [
        -17.644386291503906,
        -3.2119259834289551,
        1.3010610342025757
      ],
      "type": "VEC3"
    },
    {
      "bufferView": 2,
      "byteOffset": 1692,
      "componentType": 5126,
      "count": 141,
      "max": [
        0.69778639078140259,
        0.98899209499359131,
        0.99984878301620483
      ],
      "min": [
        -0.670207679271698,
        -0.36016601324081421,
        -0.51178812980651855
      ],
      "type": "VEC3"
    },
    {
      "bufferView": 3,
      "componentType": 5126,
      "count": 141,
      "max": [
        0.88435035943984985,
        0.98351669311523438,
        0.99973499774932861,
        1
      ],
      "min": [
        -0.91020768880844116,
        -0.99999934434890747,
        -0.99859344959259033,
        1
      ],
      "type": "VEC4"
    },
    {
      "bufferView": 1,
      "componentType": 5126,
      "count": 141,
      "max": [
        0.94592899084091187,
        0.6112629771232605
      ],
      "min": [
        0.24352799355983734,
        0.063822999596595764
      ],
      "type": "VEC2"
    },
    {
      "bufferView": 0,
      "componentType": 5125,
      "count": 468,
      "max": [
        140
      ],
      "min": [
        0
      ],
      "type": "SCALAR"
    },
    {
      "bufferView": 2,
      "byteOffset": 3384,
      "componentType": 5126,
      "count": 256,
      "max": [
        7.2894091606140137,
        4.7550168037414551,
        25.109687805175781
      ],
      "min": [
        -8.3489179611206055,
        -3.7070589065551758,
        -0.6475909948348999
      ],
      "type": "VEC3"
    },
    {
      "bufferView": 2,
      "byteOffset": 6456,
      "componentType": 5126,
      "count": 256,
      "max": [
        0.97663700580596924,
        0.99885267019271851,
        0.97650390863418579
      ],
      "min": [
        -0.99667149782180786,
        -0.99885267019271851,
        -0.97650390863418579
      ],
      "type": "VEC3"
    },
    {
      "bufferView": 3,
      "byteOffset": 2256,
      "componentType": 5126,
      "count": 256,
      "max": [
        0.99917459487915039,
        0.98375368118286133,
        0.96410208940505981,
        1
      ],
      "min": [
        -0.9867289662361145,
        -0.99988383054733276,
        -0.92078113555908203,
        -1
      ],
      "type": "VEC4"
    },
    {
      "bufferView": 1,
      "byteOffset": 1128,
      "componentType": 5126,
      "count": 256,
      "max": [
        0.99138301610946655,
        0.98997402191162109
      ],
      "min": [
        0.0055940002202987671,
        0.0058309999294579029
      ],
      "type": "VEC2"
    },
    {
      "bufferView": 0,
      "byteOffset": 1872,
      "componentType": 5125,
      "count": 1152,
      "max": [
        255
      ],
      "min": [
        0
      ],
      "type": "SCALAR"
    }
  ],
  "asset": {
    "extras": {
      "author": "Ghirahimlink (https://sketchfab.com/Ghirahimlink)",
      "license": "CC-BY-4.0 (http://creativecommons.org/licenses/by/4.0/)",
      "source": "https://sketchfab.com/models/40b77087a494482082c6380ec13c24be",
      "title": "Flowey the flower"
    },
    "generator": "Sketchfab-3.19.1",
    "version": "2.0"
  },
  "bufferViews": [
    {
      "buffer": 0,
      "byteLength": 6480,
      "byteOffset": 0,
      "name": "floatBufferViews",
      "target": 34963
    },
    {
      "buffer": 0,
      "byteLength": 3176,
      "byteOffset": 6480,
      "byteStride": 8,
      "name": "floatBufferViews",
      "target": 34962
    },
    {
      "buffer": 0,
      "byteLength": 9528,
      "byteOffset": 9656,
      "byteStride": 12,
      "name": "floatBufferViews",
      "target": 34962
    },
    {
      "buffer": 0,
      "byteLength": 6352,
      "byteOffset": 19184,
      "byteStride": 16,
      "name": "floatBufferViews",
      "target": 34962
    }
  ],
  "buffers": [
    {
      "byteLength": 25536,
      "uri": "scene.bin"
    }
  ],
  "images": [
    {
      "uri": "textures/lambert2SG_baseColor.png"
    },
    {
      "uri": "textures/floweyinitialShadingGroup_baseColor.png"
    }
  ],
  "materials": [
    {
      "alphaCutoff": 0.01,
      "alphaMode": "MASK",
      "doubleSided": true,
      "emissiveFactor": [
        0,
        0,
        0
      ],
      "name": "floweyinitialShadingGroup",
      "pbrMetallicRoughness": {
        "baseColorFactor": [
          0.60999999999999999,
          0.60999999999999999,
          0.60999999999999999,
          1
        ],
        "baseColorTexture": {
          "index": 1,
          "texCoord": 0
        },
        "metallicFactor": 0,
        "roughnessFactor": 0.59999999999999998
      }
    },
    {
      "doubleSided": true,
      "emissiveFactor": [
        0,
        0,
        0
      ],
      "name": "lambert2SG",
      "pbrMetallicRoughness": {
        "baseColorFactor": [
          1,
          1,
          1,
          1
        ],
        "baseColorTexture": {
          "index": 0,
          "texCoord": 0
        },
        "metallicFactor": 0,
        "roughnessFactor": 0.59999999999999998
      }
    }
  ],
  "meshes": [
    {
      "primitives": [
        {
          "attributes": {
            "NORMAL": 1,
            "POSITION": 0,
            "TANGENT": 2,
            "TEXCOORD_0": 3
          },
          "indices": 4,
          "material": 0,
          "mode": 4
        }
      ]
    },
    {
      "primitives": [
        {
          "attributes": {
            "NORMAL": 6,
            "POSITION": 5,
            "TANGENT": 7,
            "TEXCOORD_0": 8
          },
          "indices": 9,
          "material": 1,
          "mode": 4
        }
      ]
    }
  ],
  "nodes": [
    {
      "children": [
        1
      ],
      "name": "RootNode (gltf orientation matrix)",
      "rotation": [
        -0.70710678118654746,
        -0,
        -0,
        0.70710678118654757
      ]
    },
    {
      "children": [
        2
      ],
      "name": "RootNode (model correction matrix)"
    },
    {
      "children": [
        3,
        4
      ],
      "name": "flowey.obj.cleaner.gles"
    },
    {
      "mesh": 0,
      "name": ""
    },
    {
      "mesh": 1,
      "name": ""
    }
  ],
  "samplers": [
    {
      "magFilter": 9729,
      "minFilter": 9987,
      "wrapS": 10497,
      "wrapT": 10497
    },
    {
      "magFilter": 9729,
      "minFilter": 9729,
      "wrapS": 10497,
      "wrapT": 10497
    }
  ],
  "scene": 0,
  "scenes": [
    {
      "name": "OSG_Scene",
      "nodes": [
        0
      ]
    }
  ],
  "textures": [
    {
      "sampler": 0,
      "source": 0
    },
    {
      "sampler": 1,
      "source": 1
    }
  ]
}

